<svg xmlns="http://www.w3.org/2000/svg" width="20" height="20" viewBox="0 0 20 20">
  <g id="_3d-cube" data-name="3d-cube" transform="translate(0 -0.269)">
    <g id="Page-1_20_" transform="translate(0 0.269)">
      <g id="_x30_21---3D-Design-Software">
        <path id="Shape_175_" d="M142.881,483.13H134.3a.39.39,0,1,0,0,.781h8.581a.39.39,0,1,0,0-.781Z" transform="translate(-128.591 -463.911)" fill="#aaa"/>
        <path id="Shape_174_" d="M19.643,61.781H15.357v5.156l1.549.894-.169-.631a.357.357,0,1,1,.69-.185l.393,1.466a.358.358,0,0,1-.253.438l-1.464.393a.361.361,0,0,1-.092.012.358.358,0,0,1-.093-.7l.631-.169L15,67.556l-4.643,2.655V72l.462-.462a.357.357,0,0,1,.5.506l-1.071,1.073a.357.357,0,0,1-.5,0L8.676,72.044a.357.357,0,0,1,.5-.506L9.643,72v-1.79L5,67.556l-1.55.9.631.169a.358.358,0,0,1-.091.7.363.363,0,0,1-.092-.013l-1.464-.393a.358.358,0,0,1-.253-.438l.393-1.466a.357.357,0,1,1,.69.185l-.169.631,1.549-.895V61.781H.357A.357.357,0,0,0,0,62.139v11.8H1.429a.358.358,0,0,1,0,.715H0v.715a.357.357,0,0,0,.357.358H19.643A.357.357,0,0,0,20,75.367v-.715H2.857a.358.358,0,0,1,0-.715H20v-11.8a.357.357,0,0,0-.357-.358Z" transform="translate(0 -59.333)" fill="#aaa"/>
        <path id="Shape_173_" d="M139.027,79.71l-4.29-2.452V81.8l4.29,2.452Z" transform="translate(-129.381 -74.194)" fill="#aaa"/>
        <path id="Shape_172_" d="M173.215,430.062a3.265,3.265,0,0,1-.572,1.463h6.277a3.265,3.265,0,0,1-.571-1.463Z" transform="translate(-165.782 -412.955)" fill="#aaa"/>
        <path id="Shape_171_" d="M260.491,84.249l4.29-2.452V77.258l-4.29,2.452Z" transform="translate(-250.137 -74.194)" fill="#aaa"/>
        <path id="Shape_170_" d="M152.424,2.717,148.139.269l-4.285,2.448,4.285,2.448Z" transform="translate(-138.139 -0.269)" fill="#aaa"/>
      </g>
    </g>
  </g>
</svg>
