<svg id="call" xmlns="http://www.w3.org/2000/svg" width="20.003" height="20.003" viewBox="0 0 20.003 20.003">
  <g id="Groupe_12088" data-name="Groupe 12088">
    <path id="Tracé_37415" data-name="Tracé 37415" d="M18.4,13.13a11.357,11.357,0,0,1-3.567-.568,1.63,1.63,0,0,0-1.586.334L11,14.594A12.43,12.43,0,0,1,5.408,9.006L7.056,6.816a1.617,1.617,0,0,0,.4-1.638,11.374,11.374,0,0,1-.57-3.573A1.607,1.607,0,0,0,5.279,0H1.605A1.607,1.607,0,0,0,0,1.605,18.419,18.419,0,0,0,18.4,20,1.607,1.607,0,0,0,20,18.4V14.735A1.607,1.607,0,0,0,18.4,13.13Z" fill="#aaa"/>
  </g>
</svg>
