<svg xmlns="http://www.w3.org/2000/svg" width="18" height="21.999" viewBox="0 0 18 21.999">
  <g id="file-5" transform="translate(-86.9)">
    <path id="Tracé_37411" data-name="Tracé 37411" d="M211.942,108.4H211.3v15.8a1.907,1.907,0,0,1-1.9,1.9H197.7v.586a1.215,1.215,0,0,0,1.215,1.215H211.94a1.215,1.215,0,0,0,1.215-1.215V109.615A1.213,1.213,0,0,0,211.942,108.4Z" transform="translate(-108.255 -105.91)" fill="#aaa"/>
    <path id="Tracé_37412" data-name="Tracé 37412" d="M94.625,19.509h6.513a1.215,1.215,0,0,0,1.215-1.215V1.215A1.215,1.215,0,0,0,101.138,0H92.46V.4a1.181,1.181,0,0,1,.007.129V3.859a1.712,1.712,0,0,1-1.711,1.711H87.428c-.034,0-.071,0-.106,0H86.9V18.293a1.215,1.215,0,0,0,1.215,1.215h6.51Zm.246-4.131H90.625a.574.574,0,0,1,0-1.149h4.248a.574.574,0,1,1,0,1.149Zm4.248-2.931H90.625a.574.574,0,0,1,0-1.149h8.494a.574.574,0,0,1,0,1.149ZM90.625,8.185h8.494a.574.574,0,0,1,0,1.149H90.625a.574.574,0,0,1,0-1.149Z" transform="translate(0)" fill="#aaa"/>
    <path id="Tracé_37413" data-name="Tracé 37413" d="M88.06,5.663H91.4a1.02,1.02,0,0,0,1.011-1.011V1.312A.511.511,0,0,0,91.894.8a.5.5,0,0,0-.358.152L87.7,4.79A.512.512,0,0,0,88.06,5.663Z" transform="translate(-0.631 -0.782)" fill="#aaa"/>
  </g>
</svg>
