<svg xmlns="http://www.w3.org/2000/svg" width="120.357" height="60.004" viewBox="0 0 120.357 60.004">
  <g id="Groupe_11354" data-name="Groupe 11354" transform="translate(-360 -252.284)">
    <path id="Tracé_173" data-name="Tracé 173" d="M450.979,323.445h4.882s-.315,3.154-5.129,2.916a5.943,5.943,0,0,1-5.849-6.117,6.007,6.007,0,0,1,5.849-5.932,6.365,6.365,0,0,1,5.5,2.472l2.441-2.5a9.633,9.633,0,0,0-7.687-3.421,9.507,9.507,0,0,0-9.62,9.482,9.239,9.239,0,0,0,9.614,9.614c5.31,0,9.236-3.851,9.119-9.8h-9.119Z" transform="translate(-47.656 -34.307)" fill="#1c3694"/>
    <path id="Tracé_174" data-name="Tracé 174" d="M501.714,324.038l-7.519-11.857h-3.522v17.982h3.522V318.182l7.519,11.981h3.171V312.181h-3.171Z" transform="translate(-76.535 -35.082)" fill="#1c3694"/>
    <path id="Tracé_175" data-name="Tracé 175" d="M535.675,323.075l2.461-6.589,2.541,6.589Zm.566-10.894L529.4,330.163h3.625l1.508-4.037h7.317l1.556,4.037h3.954l-7.25-17.982Z" transform="translate(-99.22 -35.082)" fill="#1c3694"/>
    <rect id="Rectangle_20" data-name="Rectangle 20" width="6.425" height="2.389" transform="translate(449.547 288.654)" fill="#1c3694"/>
    <path id="Tracé_176" data-name="Tracé 176" d="M444.716,368.743h1.907l-.587-1.558q-.268-.71-.4-1.166a7.179,7.179,0,0,1-.3,1.074Zm-1.623,2.31,2.161-5.626h.8l2.3,5.626h-.848l-.656-1.7H444.5l-.618,1.7Z" transform="translate(-48.668 -66.268)" fill="#1c3694"/>
    <path id="Tracé_177" data-name="Tracé 177" d="M468.469,371.9l.683-.107a.953.953,0,0,0,.32.629,1.116,1.116,0,0,0,.735.219,1.079,1.079,0,0,0,.706-.194.579.579,0,0,0,.23-.455.42.42,0,0,0-.2-.368,2.993,2.993,0,0,0-.706-.234,6.4,6.4,0,0,1-1.054-.332,1.007,1.007,0,0,1-.6-.935,1.049,1.049,0,0,1,.125-.5,1.115,1.115,0,0,1,.34-.385,1.413,1.413,0,0,1,.439-.2,2.1,2.1,0,0,1,.6-.082,2.354,2.354,0,0,1,.843.138,1.145,1.145,0,0,1,.535.374,1.46,1.46,0,0,1,.238.631l-.675.092a.738.738,0,0,0-.267-.491.975.975,0,0,0-.623-.176,1.131,1.131,0,0,0-.68.157.458.458,0,0,0-.2.368.38.38,0,0,0,.085.242.6.6,0,0,0,.265.184q.1.039.61.177a8.514,8.514,0,0,1,1.023.321,1.034,1.034,0,0,1,.454.363,1.01,1.01,0,0,1,.165.591,1.16,1.16,0,0,1-.2.651,1.3,1.3,0,0,1-.581.472,2.115,2.115,0,0,1-.86.167,1.915,1.915,0,0,1-1.211-.33,1.533,1.533,0,0,1-.532-.979" transform="translate(-63.531 -68.33)" fill="#1c3694"/>
    <path id="Tracé_178" data-name="Tracé 178" d="M490.067,371.9l.683-.107a.954.954,0,0,0,.32.629,1.116,1.116,0,0,0,.735.219,1.079,1.079,0,0,0,.706-.194.579.579,0,0,0,.23-.455.42.42,0,0,0-.2-.368,2.984,2.984,0,0,0-.706-.234,6.4,6.4,0,0,1-1.054-.332,1.006,1.006,0,0,1-.6-.935,1.048,1.048,0,0,1,.125-.5,1.119,1.119,0,0,1,.34-.385,1.419,1.419,0,0,1,.439-.2,2.1,2.1,0,0,1,.6-.082,2.354,2.354,0,0,1,.842.138,1.145,1.145,0,0,1,.535.374,1.46,1.46,0,0,1,.238.631l-.675.092a.738.738,0,0,0-.267-.491.976.976,0,0,0-.624-.176,1.13,1.13,0,0,0-.679.157.458.458,0,0,0-.2.368.379.379,0,0,0,.084.242.6.6,0,0,0,.265.184q.1.039.61.177a8.493,8.493,0,0,1,1.023.321,1.033,1.033,0,0,1,.455.363,1.01,1.01,0,0,1,.165.591,1.161,1.161,0,0,1-.2.651,1.3,1.3,0,0,1-.581.472,2.114,2.114,0,0,1-.86.167,1.915,1.915,0,0,1-1.211-.33,1.533,1.533,0,0,1-.532-.979" transform="translate(-76.181 -68.33)" fill="#1c3694"/>
    <path id="Tracé_179" data-name="Tracé 179" d="M514.98,373.244v-.6a1.492,1.492,0,0,1-1.293.691,1.648,1.648,0,0,1-.673-.138,1.114,1.114,0,0,1-.464-.347,1.3,1.3,0,0,1-.213-.512,3.5,3.5,0,0,1-.042-.645v-2.525h.691v2.26a4.064,4.064,0,0,0,.042.729.723.723,0,0,0,.276.428.857.857,0,0,0,.522.155,1.138,1.138,0,0,0,.583-.159.884.884,0,0,0,.386-.434,2.176,2.176,0,0,0,.113-.8v-2.184h.691v4.075Z" transform="translate(-89.199 -68.46)" fill="#1c3694"/>
    <path id="Tracé_180" data-name="Tracé 180" d="M534.975,373.115v-4.075h.622v.618a1.68,1.68,0,0,1,.439-.572.766.766,0,0,1,.443-.138,1.346,1.346,0,0,1,.709.222l-.238.641a.987.987,0,0,0-.507-.15.657.657,0,0,0-.406.136.736.736,0,0,0-.257.378,2.693,2.693,0,0,0-.115.806v2.134Z" transform="translate(-102.483 -68.33)" fill="#1c3694"/>
    <path id="Tracé_181" data-name="Tracé 181" d="M555.694,371.069a5.049,5.049,0,0,1-1.128.261,2.6,2.6,0,0,0-.6.138.6.6,0,0,0-.273.225.61.61,0,0,0,.113.788.9.9,0,0,0,.612.184,1.423,1.423,0,0,0,.71-.175,1.073,1.073,0,0,0,.457-.478,1.67,1.67,0,0,0,.111-.691Zm.058,1.543a2.565,2.565,0,0,1-.739.46,2.125,2.125,0,0,1-.762.135,1.481,1.481,0,0,1-1.032-.328,1.083,1.083,0,0,1-.361-.839,1.114,1.114,0,0,1,.136-.547,1.129,1.129,0,0,1,.357-.4,1.682,1.682,0,0,1,.5-.226,4.861,4.861,0,0,1,.614-.1,6.342,6.342,0,0,0,1.232-.238q0-.142,0-.181a.761.761,0,0,0-.2-.595,1.155,1.155,0,0,0-.787-.234,1.221,1.221,0,0,0-.72.171,1.044,1.044,0,0,0-.343.6l-.675-.092a1.671,1.671,0,0,1,.3-.7,1.325,1.325,0,0,1,.61-.411,2.717,2.717,0,0,1,.925-.144,2.444,2.444,0,0,1,.848.123,1.112,1.112,0,0,1,.48.309,1.08,1.08,0,0,1,.215.47,3.864,3.864,0,0,1,.035.637v.921a9.793,9.793,0,0,0,.044,1.218,1.543,1.543,0,0,0,.175.489h-.722a1.459,1.459,0,0,1-.138-.5" transform="translate(-112.957 -68.33)" fill="#1c3694"/>
    <path id="Tracé_182" data-name="Tracé 182" d="M576.086,373.115v-4.075h.622v.58a1.464,1.464,0,0,1,1.3-.671,1.7,1.7,0,0,1,.677.132,1.065,1.065,0,0,1,.462.348,1.334,1.334,0,0,1,.215.51,3.921,3.921,0,0,1,.039.671v2.506h-.691v-2.479a1.867,1.867,0,0,0-.08-.631.666.666,0,0,0-.286-.334.91.91,0,0,0-.482-.125,1.118,1.118,0,0,0-.762.28,1.382,1.382,0,0,0-.321,1.063v2.226Z" transform="translate(-126.562 -68.33)" fill="#1c3694"/>
    <path id="Tracé_183" data-name="Tracé 183" d="M601.109,371.622l.679.088a1.761,1.761,0,0,1-.57,1.1,1.659,1.659,0,0,1-1.126.4,1.749,1.749,0,0,1-1.345-.547,2.218,2.218,0,0,1-.509-1.567,2.837,2.837,0,0,1,.219-1.155,1.525,1.525,0,0,1,.666-.743,1.975,1.975,0,0,1,.973-.247,1.691,1.691,0,0,1,1.086.335,1.541,1.541,0,0,1,.541.954l-.672.1a1.113,1.113,0,0,0-.34-.618.879.879,0,0,0-.589-.207,1.072,1.072,0,0,0-.848.374,1.775,1.775,0,0,0-.326,1.184,1.833,1.833,0,0,0,.315,1.194,1.023,1.023,0,0,0,.821.372.967.967,0,0,0,.679-.249,1.236,1.236,0,0,0,.346-.767" transform="translate(-139.537 -68.33)" fill="#1c3694"/>
    <path id="Tracé_184" data-name="Tracé 184" d="M620.541,370.686h2.275a1.385,1.385,0,0,0-.261-.771,1.06,1.06,0,0,0-.856-.4,1.1,1.1,0,0,0-.8.318,1.259,1.259,0,0,0-.359.852m2.268,1.117.714.088a1.739,1.739,0,0,1-.626.971,2.118,2.118,0,0,1-2.584-.205,2.151,2.151,0,0,1-.524-1.545,2.251,2.251,0,0,1,.53-1.6,1.792,1.792,0,0,1,1.374-.568,1.742,1.742,0,0,1,1.335.556,2.21,2.21,0,0,1,.518,1.566q0,.062,0,.184H620.5a1.569,1.569,0,0,0,.38,1.029,1.132,1.132,0,0,0,.852.357,1.057,1.057,0,0,0,.649-.2,1.328,1.328,0,0,0,.426-.637" transform="translate(-152.159 -68.33)" fill="#1c3694"/>
    <path id="Tracé_185" data-name="Tracé 185" d="M642.341,371.9l.683-.107a.954.954,0,0,0,.32.629,1.116,1.116,0,0,0,.735.219,1.079,1.079,0,0,0,.706-.194.58.58,0,0,0,.23-.455.42.42,0,0,0-.2-.368,2.987,2.987,0,0,0-.706-.234,6.389,6.389,0,0,1-1.054-.332,1.006,1.006,0,0,1-.6-.935,1.05,1.05,0,0,1,.125-.5,1.115,1.115,0,0,1,.34-.385,1.413,1.413,0,0,1,.439-.2,2.1,2.1,0,0,1,.6-.082,2.353,2.353,0,0,1,.842.138,1.145,1.145,0,0,1,.535.374,1.458,1.458,0,0,1,.238.631l-.675.092a.738.738,0,0,0-.267-.491.976.976,0,0,0-.624-.176,1.13,1.13,0,0,0-.679.157.458.458,0,0,0-.2.368.379.379,0,0,0,.084.242.607.607,0,0,0,.265.184q.1.039.61.177a8.484,8.484,0,0,1,1.023.321,1.032,1.032,0,0,1,.454.363,1.01,1.01,0,0,1,.165.591,1.16,1.16,0,0,1-.2.651,1.3,1.3,0,0,1-.581.472,2.114,2.114,0,0,1-.86.167,1.915,1.915,0,0,1-1.211-.33,1.535,1.535,0,0,1-.531-.979" transform="translate(-165.368 -68.33)" fill="#1c3694"/>
    <rect id="Rectangle_21" data-name="Rectangle 21" width="3.573" height="17.982" transform="translate(476.606 277.099)" fill="#ff8708"/>
    <path id="Tracé_186" data-name="Tracé 186" d="M611.294,318h3.734s-.735-7.326-9.17-6.119a6.844,6.844,0,0,0-3.19,1.46c-1.818,1.395-3.451,4.007-3.051,8.986a7.944,7.944,0,0,0,6.224,7.58s7.6,1.6,9.057-6.365h-3.642a3.724,3.724,0,0,1-3.875,3.3c-3.557,0-4.065-3.918-4.044-6.268s.911-5.654,4.468-5.738c3.028-.021,3.491,3.161,3.491,3.161" transform="translate(-140.309 -34.829)" fill="#ff8708"/>
    <path id="Tracé_187" data-name="Tracé 187" d="M390.989,295.081l21.586-16.4-5.555-26.4Z" transform="translate(-18.15 0)" fill="#1c3694"/>
    <path id="Tracé_188" data-name="Tracé 188" d="M381.508,293.77,360,310.171l5.369,26.416Z" transform="translate(0 -24.298)" fill="#ff8708"/>
  </g>
</svg>
