<svg id="Groupe_11" data-name="Groupe 11" xmlns="http://www.w3.org/2000/svg" width="25" height="20" viewBox="0 0 25 20">
  <path id="Tracé_105" data-name="Tracé 105" d="M132.207,246.346a.543.543,0,0,1-.118.34l-1.107,1.384a.515.515,0,0,1-.4.194.509.509,0,0,1-.331-.123l-10.209-8.65a.519.519,0,0,0-.664,0l-10.208,8.65a.51.51,0,0,1-.734-.073l-1.107-1.384a.546.546,0,0,1,.069-.755l10.986-9.308a2.04,2.04,0,0,1,2.647,0l3.885,3.289,3.472,2.943,3.628,3.077A.54.54,0,0,1,132.207,246.346Zm-12.5-5.144a.517.517,0,0,1,.332.12l8,6.775v7.323a.7.7,0,0,1-.694.714l-4.861-.014a.7.7,0,0,1-.695-.714v-4.272a.705.705,0,0,0-.695-.715h-2.777a.7.7,0,0,0-.694.715v4.273a.705.705,0,0,1-.691.714l-4.863.013a.7.7,0,0,1-.694-.714V248.1l8-6.78A.518.518,0,0,1,119.708,241.2Z" transform="translate(-107.207 -236.134)" fill="#aaa"/>
</svg>
