<svg xmlns="http://www.w3.org/2000/svg" width="18" height="21.997" viewBox="0 0 18 21.997">
  <g id="Layer_x0020_1" transform="translate(-5.178)">
    <path id="Tracé_37414" data-name="Tracé 37414" d="M13.761,22c-2.446-.349-4.531-2.3-3.521-6.43,1.023,1.379,1.394.651,1.394.651a6,6,0,0,1,3.873-5.855c-1.141,2.394,1.116,2.461,1.27,5.178a3.325,3.325,0,0,0,1.271-.937c3.078,3.85.8,6.6-2.116,7.311,4.664-.556,8.674-4.23,6.753-12.092-1.93,2.6-2.632,1.228-2.632,1.228C19.937,2.21,12.742,0,12.742,0c2.153,4.52-2.107,4.644-2.4,9.774a6.275,6.275,0,0,1-2.4-1.768C1.505,16.062,7.5,21.578,13.761,22Z" transform="translate(0 0)" fill="#aaa" fill-rule="evenodd"/>
  </g>
</svg>
