<svg xmlns="http://www.w3.org/2000/svg" width="24" height="20.002" viewBox="0 0 24 20.002">
  <path id="users" d="M12,12.5a3.957,3.957,0,0,0,3.866-4.063A3.977,3.977,0,0,0,12,4.375,3.957,3.957,0,0,0,8.13,8.438,3.936,3.936,0,0,0,12,12.5Zm1.875,1.25H10.129A5.269,5.269,0,0,0,4.8,18.959,1.052,1.052,0,0,0,5.865,20h12.27A1.052,1.052,0,0,0,19.2,18.959,5.269,5.269,0,0,0,13.871,13.751ZM19.2,6.25a3.065,3.065,0,0,0,3-3.125,3,3,0,1,0-6,0A3.064,3.064,0,0,0,19.2,6.25ZM6.9,8.438a5.415,5.415,0,0,1,.06-.622A2.627,2.627,0,0,0,5.621,7.5H3.3A3.487,3.487,0,0,0,0,11.145a.7.7,0,0,0,.661.731H8.142A5.39,5.39,0,0,1,6.9,8.438ZM4.8,6.25a3.065,3.065,0,0,0,3-3.125A3.064,3.064,0,0,0,4.8,0a3.065,3.065,0,0,0-3,3.125A3.065,3.065,0,0,0,4.8,6.25ZM20.7,7.5H18.377a3.024,3.024,0,0,0-1.345.322,5.569,5.569,0,0,1,.06.616,5.4,5.4,0,0,1-1.243,3.438h7.489A.7.7,0,0,0,24,11.145,3.486,3.486,0,0,0,20.7,7.5Z" fill="#aaa"/>
</svg>
